<svg width="283" height="33" viewBox="0 0 283 33" fill="none" xmlns="http://www.w3.org/2000/svg">
<path d="M8.875 18.5C8.875 16.3625 10.6125 14.625 12.75 14.625H17.75V12.25H12.75C9.3 12.25 6.5 15.05 6.5 18.5C6.5 21.95 9.3 24.75 12.75 24.75H17.75V22.375H12.75C10.6125 22.375 8.875 20.6375 8.875 18.5ZM14 19.75H24V17.25H14V19.75ZM25.25 12.25H20.25V14.625H25.25C27.3875 14.625 29.125 16.3625 29.125 18.5C29.125 20.6375 27.3875 22.375 25.25 22.375H20.25V24.75H25.25C28.7 24.75 31.5 21.95 31.5 18.5C31.5 15.05 28.7 12.25 25.25 12.25Z" fill="#212121"/>
<path d="M45.024 25.288C43.536 25.288 42.384 24.824 41.568 23.896C40.768 22.968 40.368 21.608 40.368 19.816V13.096H43.416V19.528C43.416 20.552 43.624 21.336 44.04 21.88C44.456 22.424 45.112 22.696 46.008 22.696C46.856 22.696 47.552 22.392 48.096 21.784C48.656 21.176 48.936 20.328 48.936 19.24V13.096H52.008V25H49.296L49.056 22.984C48.688 23.688 48.152 24.248 47.448 24.664C46.76 25.08 45.952 25.288 45.024 25.288ZM55.1616 25V13.096H57.8976L58.1856 15.328C58.6176 14.56 59.2016 13.952 59.9376 13.504C60.6896 13.04 61.5696 12.808 62.5776 12.808V16.048H61.7136C61.0416 16.048 60.4416 16.152 59.9136 16.36C59.3856 16.568 58.9696 16.928 58.6656 17.44C58.3776 17.952 58.2336 18.664 58.2336 19.576V25H55.1616ZM64.6772 25V7.72H67.7492V25H64.6772ZM75.8081 25.288C74.7521 25.288 73.8241 25.12 73.0241 24.784C72.2241 24.432 71.5841 23.952 71.1041 23.344C70.6241 22.736 70.3361 22.032 70.2401 21.232H73.3361C73.4321 21.696 73.6881 22.096 74.1041 22.432C74.5361 22.752 75.0881 22.912 75.7601 22.912C76.4321 22.912 76.9201 22.776 77.2241 22.504C77.5441 22.232 77.7041 21.92 77.7041 21.568C77.7041 21.056 77.4801 20.712 77.0321 20.536C76.5841 20.344 75.9601 20.16 75.1601 19.984C74.6481 19.872 74.1281 19.736 73.6001 19.576C73.0721 19.416 72.5841 19.216 72.1361 18.976C71.7041 18.72 71.3521 18.4 71.0801 18.016C70.8081 17.616 70.6721 17.128 70.6721 16.552C70.6721 15.496 71.0881 14.608 71.9201 13.888C72.7681 13.168 73.9521 12.808 75.4721 12.808C76.8801 12.808 78.0001 13.136 78.8321 13.792C79.6801 14.448 80.1841 15.352 80.3441 16.504H77.4401C77.2641 15.624 76.6001 15.184 75.4481 15.184C74.8721 15.184 74.4241 15.296 74.1041 15.52C73.8001 15.744 73.6481 16.024 73.6481 16.36C73.6481 16.712 73.8801 16.992 74.3441 17.2C74.8081 17.408 75.4241 17.6 76.1921 17.776C77.0241 17.968 77.7841 18.184 78.4721 18.424C79.1761 18.648 79.7361 18.992 80.1521 19.456C80.5681 19.904 80.7761 20.552 80.7761 21.4C80.7921 22.136 80.6001 22.8 80.2001 23.392C79.8001 23.984 79.2241 24.448 78.4721 24.784C77.7201 25.12 76.8321 25.288 75.8081 25.288ZM83.4975 25V7.72H86.5695V14.92C86.9695 14.264 87.5055 13.752 88.1775 13.384C88.8655 13 89.6495 12.808 90.5295 12.808C92.0015 12.808 93.1375 13.272 93.9375 14.2C94.7535 15.128 95.1615 16.488 95.1615 18.28V25H92.1135V18.568C92.1135 17.544 91.9055 16.76 91.4895 16.216C91.0895 15.672 90.4495 15.4 89.5695 15.4C88.7055 15.4 87.9855 15.704 87.4095 16.312C86.8495 16.92 86.5695 17.768 86.5695 18.856V25H83.4975ZM103.811 25.288C102.659 25.288 101.619 25.024 100.691 24.496C99.7791 23.968 99.0511 23.24 98.5071 22.312C97.9791 21.368 97.7151 20.28 97.7151 19.048C97.7151 17.816 97.9871 16.736 98.5311 15.808C99.0751 14.864 99.8031 14.128 100.715 13.6C101.643 13.072 102.683 12.808 103.835 12.808C104.971 12.808 105.995 13.072 106.907 13.6C107.835 14.128 108.563 14.864 109.091 15.808C109.635 16.736 109.907 17.816 109.907 19.048C109.907 20.28 109.635 21.368 109.091 22.312C108.563 23.24 107.835 23.968 106.907 24.496C105.979 25.024 104.947 25.288 103.811 25.288ZM103.811 22.624C104.611 22.624 105.307 22.328 105.899 21.736C106.491 21.128 106.787 20.232 106.787 19.048C106.787 17.864 106.491 16.976 105.899 16.384C105.307 15.776 104.619 15.472 103.835 15.472C103.019 15.472 102.315 15.776 101.723 16.384C101.147 16.976 100.859 17.864 100.859 19.048C100.859 20.232 101.147 21.128 101.723 21.736C102.315 22.328 103.011 22.624 103.811 22.624ZM112.654 25V13.096H115.39L115.678 15.328C116.11 14.56 116.694 13.952 117.43 13.504C118.182 13.04 119.062 12.808 120.07 12.808V16.048H119.206C118.534 16.048 117.934 16.152 117.406 16.36C116.878 16.568 116.462 16.928 116.158 17.44C115.87 17.952 115.726 18.664 115.726 19.576V25H112.654ZM127.473 25C126.225 25 125.225 24.696 124.473 24.088C123.721 23.48 123.345 22.4 123.345 20.848V15.664H121.305V13.096H123.345L123.705 9.904H126.417V13.096H129.633V15.664H126.417V20.872C126.417 21.448 126.537 21.848 126.777 22.072C127.033 22.28 127.465 22.384 128.073 22.384H129.561V25H127.473ZM137.75 25.288C136.55 25.288 135.486 25.032 134.558 24.52C133.63 24.008 132.902 23.288 132.374 22.36C131.846 21.432 131.582 20.36 131.582 19.144C131.582 17.912 131.838 16.816 132.35 15.856C132.878 14.896 133.598 14.152 134.51 13.624C135.438 13.08 136.526 12.808 137.774 12.808C138.942 12.808 139.974 13.064 140.87 13.576C141.766 14.088 142.462 14.792 142.958 15.688C143.47 16.568 143.726 17.552 143.726 18.64C143.726 18.816 143.718 19 143.702 19.192C143.702 19.384 143.694 19.584 143.678 19.792H134.63C134.694 20.72 135.014 21.448 135.59 21.976C136.182 22.504 136.894 22.768 137.726 22.768C138.35 22.768 138.87 22.632 139.286 22.36C139.718 22.072 140.038 21.704 140.246 21.256H143.366C143.142 22.008 142.766 22.696 142.238 23.32C141.726 23.928 141.086 24.408 140.318 24.76C139.566 25.112 138.71 25.288 137.75 25.288ZM137.774 15.304C137.022 15.304 136.358 15.52 135.782 15.952C135.206 16.368 134.838 17.008 134.678 17.872H140.606C140.558 17.088 140.27 16.464 139.742 16C139.214 15.536 138.558 15.304 137.774 15.304ZM146.31 25V13.096H149.022L149.262 15.112C149.63 14.408 150.158 13.848 150.846 13.432C151.55 13.016 152.374 12.808 153.318 12.808C154.79 12.808 155.934 13.272 156.75 14.2C157.566 15.128 157.974 16.488 157.974 18.28V25H154.902V18.568C154.902 17.544 154.694 16.76 154.278 16.216C153.862 15.672 153.214 15.4 152.334 15.4C151.47 15.4 150.758 15.704 150.198 16.312C149.654 16.92 149.382 17.768 149.382 18.856V25H146.31ZM162.568 11.248C162.008 11.248 161.544 11.08 161.176 10.744C160.824 10.408 160.648 9.984 160.648 9.472C160.648 8.96 160.824 8.544 161.176 8.224C161.544 7.888 162.008 7.72 162.568 7.72C163.128 7.72 163.584 7.888 163.936 8.224C164.304 8.544 164.488 8.96 164.488 9.472C164.488 9.984 164.304 10.408 163.936 10.744C163.584 11.08 163.128 11.248 162.568 11.248ZM161.032 25V13.096H164.104V25H161.032ZM167.31 25V13.096H170.022L170.262 15.112C170.63 14.408 171.158 13.848 171.846 13.432C172.55 13.016 173.374 12.808 174.318 12.808C175.79 12.808 176.934 13.272 177.75 14.2C178.566 15.128 178.974 16.488 178.974 18.28V25H175.902V18.568C175.902 17.544 175.694 16.76 175.278 16.216C174.862 15.672 174.214 15.4 173.334 15.4C172.47 15.4 171.758 15.704 171.198 16.312C170.654 16.92 170.382 17.768 170.382 18.856V25H167.31ZM186.952 21.448C186.376 21.448 185.84 21.384 185.344 21.256L184.456 22.144C184.728 22.288 185.096 22.408 185.56 22.504C186.024 22.6 186.776 22.696 187.816 22.792C189.4 22.936 190.552 23.312 191.272 23.92C191.992 24.528 192.352 25.368 192.352 26.44C192.352 27.144 192.16 27.808 191.776 28.432C191.392 29.072 190.8 29.584 190 29.968C189.2 30.368 188.176 30.568 186.928 30.568C185.232 30.568 183.864 30.248 182.824 29.608C181.784 28.984 181.264 28.04 181.264 26.776C181.264 25.704 181.784 24.776 182.824 23.992C182.504 23.848 182.224 23.696 181.984 23.536C181.76 23.376 181.56 23.208 181.384 23.032V22.48L183.472 20.272C182.544 19.456 182.08 18.408 182.08 17.128C182.08 16.328 182.272 15.6 182.656 14.944C183.056 14.288 183.616 13.768 184.336 13.384C185.056 13 185.928 12.808 186.952 12.808C187.624 12.808 188.248 12.904 188.824 13.096H193.336V14.968L191.296 15.112C191.616 15.72 191.776 16.392 191.776 17.128C191.776 17.928 191.584 18.656 191.2 19.312C190.816 19.968 190.256 20.488 189.52 20.872C188.8 21.256 187.944 21.448 186.952 21.448ZM186.952 19.096C187.576 19.096 188.088 18.928 188.488 18.592C188.904 18.256 189.112 17.776 189.112 17.152C189.112 16.528 188.904 16.048 188.488 15.712C188.088 15.376 187.576 15.208 186.952 15.208C186.296 15.208 185.768 15.376 185.368 15.712C184.968 16.048 184.768 16.528 184.768 17.152C184.768 17.776 184.968 18.256 185.368 18.592C185.768 18.928 186.296 19.096 186.952 19.096ZM184.072 26.464C184.072 27.056 184.344 27.496 184.888 27.784C185.448 28.088 186.128 28.24 186.928 28.24C187.696 28.24 188.32 28.08 188.8 27.76C189.28 27.456 189.52 27.04 189.52 26.512C189.52 26.08 189.36 25.72 189.04 25.432C188.736 25.144 188.12 24.968 187.192 24.904C186.536 24.856 185.928 24.784 185.368 24.688C184.904 24.944 184.568 25.224 184.36 25.528C184.168 25.832 184.072 26.144 184.072 26.464ZM200.496 25.288C199.44 25.288 198.512 25.12 197.712 24.784C196.912 24.432 196.272 23.952 195.792 23.344C195.312 22.736 195.024 22.032 194.928 21.232H198.024C198.12 21.696 198.376 22.096 198.792 22.432C199.224 22.752 199.776 22.912 200.448 22.912C201.12 22.912 201.608 22.776 201.912 22.504C202.232 22.232 202.392 21.92 202.392 21.568C202.392 21.056 202.168 20.712 201.72 20.536C201.272 20.344 200.648 20.16 199.848 19.984C199.336 19.872 198.816 19.736 198.288 19.576C197.76 19.416 197.272 19.216 196.824 18.976C196.392 18.72 196.04 18.4 195.768 18.016C195.496 17.616 195.36 17.128 195.36 16.552C195.36 15.496 195.776 14.608 196.608 13.888C197.456 13.168 198.64 12.808 200.16 12.808C201.568 12.808 202.688 13.136 203.52 13.792C204.368 14.448 204.872 15.352 205.032 16.504H202.128C201.952 15.624 201.288 15.184 200.136 15.184C199.56 15.184 199.112 15.296 198.792 15.52C198.488 15.744 198.336 16.024 198.336 16.36C198.336 16.712 198.568 16.992 199.032 17.2C199.496 17.408 200.112 17.6 200.88 17.776C201.712 17.968 202.472 18.184 203.16 18.424C203.864 18.648 204.424 18.992 204.84 19.456C205.256 19.904 205.464 20.552 205.464 21.4C205.48 22.136 205.288 22.8 204.888 23.392C204.488 23.984 203.912 24.448 203.16 24.784C202.408 25.12 201.52 25.288 200.496 25.288ZM213.969 25.288C212.769 25.288 211.705 25.032 210.777 24.52C209.849 24.008 209.121 23.288 208.593 22.36C208.065 21.432 207.801 20.36 207.801 19.144C207.801 17.912 208.057 16.816 208.569 15.856C209.097 14.896 209.817 14.152 210.729 13.624C211.657 13.08 212.745 12.808 213.993 12.808C215.161 12.808 216.193 13.064 217.089 13.576C217.985 14.088 218.681 14.792 219.177 15.688C219.689 16.568 219.945 17.552 219.945 18.64C219.945 18.816 219.937 19 219.921 19.192C219.921 19.384 219.913 19.584 219.897 19.792H210.849C210.913 20.72 211.233 21.448 211.809 21.976C212.401 22.504 213.113 22.768 213.945 22.768C214.569 22.768 215.089 22.632 215.505 22.36C215.937 22.072 216.257 21.704 216.465 21.256H219.585C219.361 22.008 218.985 22.696 218.457 23.32C217.945 23.928 217.305 24.408 216.537 24.76C215.785 25.112 214.929 25.288 213.969 25.288ZM213.993 15.304C213.241 15.304 212.577 15.52 212.001 15.952C211.425 16.368 211.057 17.008 210.897 17.872H216.825C216.777 17.088 216.489 16.464 215.961 16C215.433 15.536 214.777 15.304 213.993 15.304ZM222.529 25V13.096H225.265L225.553 15.328C225.985 14.56 226.569 13.952 227.305 13.504C228.057 13.04 228.937 12.808 229.945 12.808V16.048H229.081C228.409 16.048 227.809 16.152 227.281 16.36C226.753 16.568 226.337 16.928 226.033 17.44C225.745 17.952 225.601 18.664 225.601 19.576V25H222.529ZM235.26 25L230.892 13.096H234.108L237.132 22.096L240.156 13.096H243.372L238.98 25H235.26ZM246.966 11.248C246.406 11.248 245.942 11.08 245.574 10.744C245.222 10.408 245.046 9.984 245.046 9.472C245.046 8.96 245.222 8.544 245.574 8.224C245.942 7.888 246.406 7.72 246.966 7.72C247.526 7.72 247.982 7.888 248.334 8.224C248.702 8.544 248.886 8.96 248.886 9.472C248.886 9.984 248.702 10.408 248.334 10.744C247.982 11.08 247.526 11.248 246.966 11.248ZM245.43 25V13.096H248.502V25H245.43ZM257.54 25.288C256.324 25.288 255.252 25.024 254.324 24.496C253.396 23.968 252.66 23.232 252.116 22.288C251.588 21.344 251.324 20.264 251.324 19.048C251.324 17.832 251.588 16.752 252.116 15.808C252.66 14.864 253.396 14.128 254.324 13.6C255.252 13.072 256.324 12.808 257.54 12.808C259.06 12.808 260.34 13.208 261.38 14.008C262.42 14.792 263.084 15.88 263.372 17.272H260.132C259.972 16.696 259.652 16.248 259.172 15.928C258.708 15.592 258.156 15.424 257.516 15.424C256.668 15.424 255.948 15.744 255.356 16.384C254.764 17.024 254.468 17.912 254.468 19.048C254.468 20.184 254.764 21.072 255.356 21.712C255.948 22.352 256.668 22.672 257.516 22.672C258.156 22.672 258.708 22.512 259.172 22.192C259.652 21.872 259.972 21.416 260.132 20.824H263.372C263.084 22.168 262.42 23.248 261.38 24.064C260.34 24.88 259.06 25.288 257.54 25.288ZM271.883 25.288C270.683 25.288 269.619 25.032 268.691 24.52C267.763 24.008 267.035 23.288 266.507 22.36C265.979 21.432 265.715 20.36 265.715 19.144C265.715 17.912 265.971 16.816 266.483 15.856C267.011 14.896 267.731 14.152 268.643 13.624C269.571 13.08 270.659 12.808 271.907 12.808C273.075 12.808 274.107 13.064 275.003 13.576C275.899 14.088 276.595 14.792 277.091 15.688C277.603 16.568 277.859 17.552 277.859 18.64C277.859 18.816 277.851 19 277.835 19.192C277.835 19.384 277.827 19.584 277.811 19.792H268.763C268.827 20.72 269.147 21.448 269.723 21.976C270.315 22.504 271.027 22.768 271.859 22.768C272.483 22.768 273.003 22.632 273.419 22.36C273.851 22.072 274.171 21.704 274.379 21.256H277.499C277.275 22.008 276.899 22.696 276.371 23.32C275.859 23.928 275.219 24.408 274.451 24.76C273.699 25.112 272.843 25.288 271.883 25.288ZM271.907 15.304C271.155 15.304 270.491 15.52 269.915 15.952C269.339 16.368 268.971 17.008 268.811 17.872H274.739C274.691 17.088 274.403 16.464 273.875 16C273.347 15.536 272.691 15.304 271.907 15.304Z" fill="#212121"/>
<rect x="81" y="18" width="111" height="3" fill="#907FF4"/>
<rect x="53" y="18" width="16" height="3" fill="#907FF4"/>
<rect x="208" y="18" width="71" height="3" fill="#907FF4"/>
</svg>
