<svg width="274" height="33" viewBox="0 0 274 33" fill="none" xmlns="http://www.w3.org/2000/svg">
<path d="M8.875 18.5C8.875 16.3625 10.6125 14.625 12.75 14.625H17.75V12.25H12.75C9.3 12.25 6.5 15.05 6.5 18.5C6.5 21.95 9.3 24.75 12.75 24.75H17.75V22.375H12.75C10.6125 22.375 8.875 20.6375 8.875 18.5ZM14 19.75H24V17.25H14V19.75ZM25.25 12.25H20.25V14.625H25.25C27.3875 14.625 29.125 16.3625 29.125 18.5C29.125 20.6375 27.3875 22.375 25.25 22.375H20.25V24.75H25.25C28.7 24.75 31.5 21.95 31.5 18.5C31.5 15.05 28.7 12.25 25.25 12.25Z" fill="white"/>
<path d="M45.024 25.288C43.536 25.288 42.384 24.824 41.568 23.896C40.768 22.968 40.368 21.608 40.368 19.816V13.096H43.416V19.528C43.416 20.552 43.624 21.336 44.04 21.88C44.456 22.424 45.112 22.696 46.008 22.696C46.856 22.696 47.552 22.392 48.096 21.784C48.656 21.176 48.936 20.328 48.936 19.24V13.096H52.008V25H49.296L49.056 22.984C48.688 23.688 48.152 24.248 47.448 24.664C46.76 25.08 45.952 25.288 45.024 25.288ZM55.1616 25V13.096H57.8976L58.1856 15.328C58.6176 14.56 59.2016 13.952 59.9376 13.504C60.6896 13.04 61.5696 12.808 62.5776 12.808V16.048H61.7136C61.0416 16.048 60.4416 16.152 59.9136 16.36C59.3856 16.568 58.9696 16.928 58.6656 17.44C58.3776 17.952 58.2336 18.664 58.2336 19.576V25H55.1616ZM64.6772 25V7.72H67.7492V25H64.6772ZM75.8081 25.288C74.7521 25.288 73.8241 25.12 73.0241 24.784C72.2241 24.432 71.5841 23.952 71.1041 23.344C70.6241 22.736 70.3361 22.032 70.2401 21.232H73.3361C73.4321 21.696 73.6881 22.096 74.1041 22.432C74.5361 22.752 75.0881 22.912 75.7601 22.912C76.4321 22.912 76.9201 22.776 77.2241 22.504C77.5441 22.232 77.7041 21.92 77.7041 21.568C77.7041 21.056 77.4801 20.712 77.0321 20.536C76.5841 20.344 75.9601 20.16 75.1601 19.984C74.6481 19.872 74.1281 19.736 73.6001 19.576C73.0721 19.416 72.5841 19.216 72.1361 18.976C71.7041 18.72 71.3521 18.4 71.0801 18.016C70.8081 17.616 70.6721 17.128 70.6721 16.552C70.6721 15.496 71.0881 14.608 71.9201 13.888C72.7681 13.168 73.9521 12.808 75.4721 12.808C76.8801 12.808 78.0001 13.136 78.8321 13.792C79.6801 14.448 80.1841 15.352 80.3441 16.504H77.4401C77.2641 15.624 76.6001 15.184 75.4481 15.184C74.8721 15.184 74.4241 15.296 74.1041 15.52C73.8001 15.744 73.6481 16.024 73.6481 16.36C73.6481 16.712 73.8801 16.992 74.3441 17.2C74.8081 17.408 75.4241 17.6 76.1921 17.776C77.0241 17.968 77.7841 18.184 78.4721 18.424C79.1761 18.648 79.7361 18.992 80.1521 19.456C80.5681 19.904 80.7761 20.552 80.7761 21.4C80.7921 22.136 80.6001 22.8 80.2001 23.392C79.8001 23.984 79.2241 24.448 78.4721 24.784C77.7201 25.12 76.8321 25.288 75.8081 25.288ZM83.4975 25V7.72H86.5695V14.92C86.9695 14.264 87.5055 13.752 88.1775 13.384C88.8655 13 89.6495 12.808 90.5295 12.808C92.0015 12.808 93.1375 13.272 93.9375 14.2C94.7535 15.128 95.1615 16.488 95.1615 18.28V25H92.1135V18.568C92.1135 17.544 91.9055 16.76 91.4895 16.216C91.0895 15.672 90.4495 15.4 89.5695 15.4C88.7055 15.4 87.9855 15.704 87.4095 16.312C86.8495 16.92 86.5695 17.768 86.5695 18.856V25H83.4975ZM103.811 25.288C102.659 25.288 101.619 25.024 100.691 24.496C99.7791 23.968 99.0511 23.24 98.5071 22.312C97.9791 21.368 97.7151 20.28 97.7151 19.048C97.7151 17.816 97.9871 16.736 98.5311 15.808C99.0751 14.864 99.8031 14.128 100.715 13.6C101.643 13.072 102.683 12.808 103.835 12.808C104.971 12.808 105.995 13.072 106.907 13.6C107.835 14.128 108.563 14.864 109.091 15.808C109.635 16.736 109.907 17.816 109.907 19.048C109.907 20.28 109.635 21.368 109.091 22.312C108.563 23.24 107.835 23.968 106.907 24.496C105.979 25.024 104.947 25.288 103.811 25.288ZM103.811 22.624C104.611 22.624 105.307 22.328 105.899 21.736C106.491 21.128 106.787 20.232 106.787 19.048C106.787 17.864 106.491 16.976 105.899 16.384C105.307 15.776 104.619 15.472 103.835 15.472C103.019 15.472 102.315 15.776 101.723 16.384C101.147 16.976 100.859 17.864 100.859 19.048C100.859 20.232 101.147 21.128 101.723 21.736C102.315 22.328 103.011 22.624 103.811 22.624ZM112.654 25V13.096H115.39L115.678 15.328C116.11 14.56 116.694 13.952 117.43 13.504C118.182 13.04 119.062 12.808 120.07 12.808V16.048H119.206C118.534 16.048 117.934 16.152 117.406 16.36C116.878 16.568 116.462 16.928 116.158 17.44C115.87 17.952 115.726 18.664 115.726 19.576V25H112.654ZM127.473 25C126.225 25 125.225 24.696 124.473 24.088C123.721 23.48 123.345 22.4 123.345 20.848V15.664H121.305V13.096H123.345L123.705 9.904H126.417V13.096H129.633V15.664H126.417V20.872C126.417 21.448 126.537 21.848 126.777 22.072C127.033 22.28 127.465 22.384 128.073 22.384H129.561V25H127.473ZM137.75 25.288C136.55 25.288 135.486 25.032 134.558 24.52C133.63 24.008 132.902 23.288 132.374 22.36C131.846 21.432 131.582 20.36 131.582 19.144C131.582 17.912 131.838 16.816 132.35 15.856C132.878 14.896 133.598 14.152 134.51 13.624C135.438 13.08 136.526 12.808 137.774 12.808C138.942 12.808 139.974 13.064 140.87 13.576C141.766 14.088 142.462 14.792 142.958 15.688C143.47 16.568 143.726 17.552 143.726 18.64C143.726 18.816 143.718 19 143.702 19.192C143.702 19.384 143.694 19.584 143.678 19.792H134.63C134.694 20.72 135.014 21.448 135.59 21.976C136.182 22.504 136.894 22.768 137.726 22.768C138.35 22.768 138.87 22.632 139.286 22.36C139.718 22.072 140.038 21.704 140.246 21.256H143.366C143.142 22.008 142.766 22.696 142.238 23.32C141.726 23.928 141.086 24.408 140.318 24.76C139.566 25.112 138.71 25.288 137.75 25.288ZM137.774 15.304C137.022 15.304 136.358 15.52 135.782 15.952C135.206 16.368 134.838 17.008 134.678 17.872H140.606C140.558 17.088 140.27 16.464 139.742 16C139.214 15.536 138.558 15.304 137.774 15.304ZM146.31 25V13.096H149.022L149.262 15.112C149.63 14.408 150.158 13.848 150.846 13.432C151.55 13.016 152.374 12.808 153.318 12.808C154.79 12.808 155.934 13.272 156.75 14.2C157.566 15.128 157.974 16.488 157.974 18.28V25H154.902V18.568C154.902 17.544 154.694 16.76 154.278 16.216C153.862 15.672 153.214 15.4 152.334 15.4C151.47 15.4 150.758 15.704 150.198 16.312C149.654 16.92 149.382 17.768 149.382 18.856V25H146.31ZM166.696 25.288C165.496 25.288 164.432 25.032 163.504 24.52C162.576 24.008 161.848 23.288 161.32 22.36C160.792 21.432 160.528 20.36 160.528 19.144C160.528 17.912 160.784 16.816 161.296 15.856C161.824 14.896 162.544 14.152 163.456 13.624C164.384 13.08 165.472 12.808 166.72 12.808C167.888 12.808 168.92 13.064 169.816 13.576C170.712 14.088 171.408 14.792 171.904 15.688C172.416 16.568 172.672 17.552 172.672 18.64C172.672 18.816 172.664 19 172.648 19.192C172.648 19.384 172.64 19.584 172.624 19.792H163.576C163.64 20.72 163.96 21.448 164.536 21.976C165.128 22.504 165.84 22.768 166.672 22.768C167.296 22.768 167.816 22.632 168.232 22.36C168.664 22.072 168.984 21.704 169.192 21.256H172.312C172.088 22.008 171.712 22.696 171.184 23.32C170.672 23.928 170.032 24.408 169.264 24.76C168.512 25.112 167.656 25.288 166.696 25.288ZM166.72 15.304C165.968 15.304 165.304 15.52 164.728 15.952C164.152 16.368 163.784 17.008 163.624 17.872H169.552C169.504 17.088 169.216 16.464 168.688 16C168.16 15.536 167.504 15.304 166.72 15.304ZM175.255 25V13.096H177.991L178.279 15.328C178.711 14.56 179.295 13.952 180.031 13.504C180.783 13.04 181.663 12.808 182.671 12.808V16.048H181.807C181.135 16.048 180.535 16.152 180.007 16.36C179.479 16.568 179.063 16.928 178.759 17.44C178.471 17.952 178.327 18.664 178.327 19.576V25H175.255ZM189.691 25.288C188.635 25.288 187.707 25.12 186.907 24.784C186.107 24.432 185.467 23.952 184.987 23.344C184.507 22.736 184.219 22.032 184.123 21.232H187.219C187.315 21.696 187.571 22.096 187.987 22.432C188.419 22.752 188.971 22.912 189.643 22.912C190.315 22.912 190.803 22.776 191.107 22.504C191.427 22.232 191.587 21.92 191.587 21.568C191.587 21.056 191.363 20.712 190.915 20.536C190.467 20.344 189.843 20.16 189.043 19.984C188.531 19.872 188.011 19.736 187.483 19.576C186.955 19.416 186.467 19.216 186.019 18.976C185.587 18.72 185.235 18.4 184.963 18.016C184.691 17.616 184.555 17.128 184.555 16.552C184.555 15.496 184.971 14.608 185.803 13.888C186.651 13.168 187.835 12.808 189.355 12.808C190.763 12.808 191.883 13.136 192.715 13.792C193.563 14.448 194.067 15.352 194.227 16.504H191.323C191.147 15.624 190.483 15.184 189.331 15.184C188.755 15.184 188.307 15.296 187.987 15.52C187.683 15.744 187.531 16.024 187.531 16.36C187.531 16.712 187.763 16.992 188.227 17.2C188.691 17.408 189.307 17.6 190.075 17.776C190.907 17.968 191.667 18.184 192.355 18.424C193.059 18.648 193.619 18.992 194.035 19.456C194.451 19.904 194.659 20.552 194.659 21.4C194.675 22.136 194.483 22.8 194.083 23.392C193.683 23.984 193.107 24.448 192.355 24.784C191.603 25.12 190.715 25.288 189.691 25.288ZM203.164 25.288C201.964 25.288 200.9 25.032 199.972 24.52C199.044 24.008 198.316 23.288 197.788 22.36C197.26 21.432 196.996 20.36 196.996 19.144C196.996 17.912 197.252 16.816 197.764 15.856C198.292 14.896 199.012 14.152 199.924 13.624C200.852 13.08 201.94 12.808 203.188 12.808C204.356 12.808 205.388 13.064 206.284 13.576C207.18 14.088 207.876 14.792 208.372 15.688C208.884 16.568 209.14 17.552 209.14 18.64C209.14 18.816 209.132 19 209.116 19.192C209.116 19.384 209.108 19.584 209.092 19.792H200.044C200.108 20.72 200.428 21.448 201.004 21.976C201.596 22.504 202.308 22.768 203.14 22.768C203.764 22.768 204.284 22.632 204.7 22.36C205.132 22.072 205.452 21.704 205.66 21.256H208.78C208.556 22.008 208.18 22.696 207.652 23.32C207.14 23.928 206.5 24.408 205.732 24.76C204.98 25.112 204.124 25.288 203.164 25.288ZM203.188 15.304C202.436 15.304 201.772 15.52 201.196 15.952C200.62 16.368 200.252 17.008 200.092 17.872H206.02C205.972 17.088 205.684 16.464 205.156 16C204.628 15.536 203.972 15.304 203.188 15.304ZM211.724 25V13.096H214.46L214.748 15.328C215.18 14.56 215.764 13.952 216.5 13.504C217.252 13.04 218.132 12.808 219.14 12.808V16.048H218.276C217.604 16.048 217.004 16.152 216.476 16.36C215.948 16.568 215.532 16.928 215.228 17.44C214.94 17.952 214.796 18.664 214.796 19.576V25H211.724ZM224.456 25L220.088 13.096H223.304L226.328 22.096L229.352 13.096H232.568L228.176 25H224.456ZM236.161 11.248C235.601 11.248 235.137 11.08 234.769 10.744C234.417 10.408 234.241 9.984 234.241 9.472C234.241 8.96 234.417 8.544 234.769 8.224C235.137 7.888 235.601 7.72 236.161 7.72C236.721 7.72 237.177 7.888 237.529 8.224C237.897 8.544 238.081 8.96 238.081 9.472C238.081 9.984 237.897 10.408 237.529 10.744C237.177 11.08 236.721 11.248 236.161 11.248ZM234.625 25V13.096H237.697V25H234.625ZM246.736 25.288C245.52 25.288 244.448 25.024 243.52 24.496C242.592 23.968 241.856 23.232 241.312 22.288C240.784 21.344 240.52 20.264 240.52 19.048C240.52 17.832 240.784 16.752 241.312 15.808C241.856 14.864 242.592 14.128 243.52 13.6C244.448 13.072 245.52 12.808 246.736 12.808C248.256 12.808 249.536 13.208 250.576 14.008C251.616 14.792 252.28 15.88 252.568 17.272H249.328C249.168 16.696 248.848 16.248 248.368 15.928C247.904 15.592 247.352 15.424 246.712 15.424C245.864 15.424 245.144 15.744 244.552 16.384C243.96 17.024 243.664 17.912 243.664 19.048C243.664 20.184 243.96 21.072 244.552 21.712C245.144 22.352 245.864 22.672 246.712 22.672C247.352 22.672 247.904 22.512 248.368 22.192C248.848 21.872 249.168 21.416 249.328 20.824H252.568C252.28 22.168 251.616 23.248 250.576 24.064C249.536 24.88 248.256 25.288 246.736 25.288ZM261.078 25.288C259.878 25.288 258.814 25.032 257.886 24.52C256.958 24.008 256.23 23.288 255.702 22.36C255.174 21.432 254.91 20.36 254.91 19.144C254.91 17.912 255.166 16.816 255.678 15.856C256.206 14.896 256.926 14.152 257.838 13.624C258.766 13.08 259.854 12.808 261.102 12.808C262.27 12.808 263.302 13.064 264.198 13.576C265.094 14.088 265.79 14.792 266.286 15.688C266.798 16.568 267.054 17.552 267.054 18.64C267.054 18.816 267.046 19 267.03 19.192C267.03 19.384 267.022 19.584 267.006 19.792H257.958C258.022 20.72 258.342 21.448 258.918 21.976C259.51 22.504 260.222 22.768 261.054 22.768C261.678 22.768 262.198 22.632 262.614 22.36C263.046 22.072 263.366 21.704 263.574 21.256H266.694C266.47 22.008 266.094 22.696 265.566 23.32C265.054 23.928 264.414 24.408 263.646 24.76C262.894 25.112 262.038 25.288 261.078 25.288ZM261.102 15.304C260.35 15.304 259.686 15.52 259.11 15.952C258.534 16.368 258.166 17.008 258.006 17.872H263.934C263.886 17.088 263.598 16.464 263.07 16C262.542 15.536 261.886 15.304 261.102 15.304Z" fill="white"/>
<rect x="81" y="17.5" width="102" height="3" fill="#907FF4"/>
<rect x="54" y="17.5" width="16" height="3" fill="#907FF4"/>
<rect x="196" y="17.5" width="74" height="3" fill="#907FF4"/>
</svg>
